<?xml version="1.0" ?><!DOCTYPE svg  PUBLIC '-//W3C//DTD SVG 1.1//EN'  'http://www.w3.org/Graphics/SVG/1.1/DTD/svg11.dtd'><svg enable-background="new 0 0 512 512" height="512px" id="Layer_1" version="1.1" viewBox="0 0 512 512" width="512px" xml:space="preserve" xmlns="http://www.w3.org/2000/svg" xmlns:xlink="http://www.w3.org/1999/xlink"><path d="M492.775,442.879c0,34.172-27.703,61.873-61.873,61.873H81.159c-34.171,0-61.874-27.701-61.874-61.873  V93.135c0-34.171,27.703-61.873,61.874-61.873h349.744c34.17,0,61.873,27.702,61.873,61.873V442.879z" fill="#234A68"/><path d="M492.775,418.135c0,34.172-27.703,61.873-61.873,61.873H81.159c-34.171,0-61.874-27.701-61.874-61.873  V68.391c0-34.171,27.703-61.872,61.874-61.872h349.744c34.17,0,61.873,27.701,61.873,61.872V418.135z" fill="#4C75A3"/><path d="M492.775,418.135v-96.053c-15.754-15.711-31.242-31.063-33.232-33.092c-8.25-8.414-16.748-16.586-25-25  c-16.501-16.829-33.498-33.172-50-50c-16.501-16.829-33.498-33.171-50-50c-4.123-4.204-8.303-8.366-12.497-12.501  c-2.046-2.018-4.013-4.124-6.212-5.979c-2.225-1.876-4.629-3.535-7.153-4.981c-9.462-5.421-19.945-8.259-30.739-9.354  c-12.682-1.287-25.454-1.247-38.186-1.247c-11.282,0-22.563,0-33.845,0c-11.429,0-22.858,0-34.288,0c-2.081,0-4.163,0-6.244,0  c-0.013,0-0.006,2.016-0.006,2.127c0,5.397,0,10.793,0,16.19c0,9.476,0,18.951,0,28.427c0,12.08,0,24.16,0,36.242  c0,13.212,0,26.423,0,39.636c0,12.868,0,25.736,0,38.606c0,11.052,0,22.104,0,33.157c0,7.762,0,15.524,0,23.287  c0,2.998,0,5.996,0,8.995l123.414,123.413h142.115C465.072,480.008,492.775,452.307,492.775,418.135z" fill="#335C82"/><path clip-rule="evenodd" d="M334.045,250.415c-8.422-9.08-19.636-15.094-33.64-18.037v-1.221  c9.746-4.054,17.379-10.398,22.911-19.027c5.529-8.624,8.295-18.469,8.295-29.53c0-9.54-2.006-17.963-6.009-25.275  c-4.012-7.307-10.075-13.141-18.193-17.502c-7.514-4.06-15.55-6.724-24.128-7.994c-8.578-1.269-21.186-1.902-37.833-1.902h-80.075  v226.672h90.734c15.727,0,28.699-1.426,38.893-4.266c10.198-2.836,19.565-7.608,28.087-14.31  c7.21-5.582,12.943-12.635,17.202-21.162c4.258-8.525,6.396-18.416,6.396-29.683C346.685,271.757,342.472,259.498,334.045,250.415z   M222.011,171.483h3.954c10.149,0,17.786,0.077,22.908,0.228c5.13,0.154,9.564,1.043,13.326,2.664  c3.958,1.73,6.868,4.518,8.746,8.374c1.879,3.859,2.82,7.613,2.82,11.263c0,4.979-0.867,9.341-2.586,13.093  c-1.73,3.759-4.875,6.702-9.441,8.83c-4.164,1.93-8.192,2.993-12.101,3.2c-3.909,0.205-10.732,0.3-20.475,0.3h-7.152V171.483z   M284.498,300.805c-2.384,4.312-6.166,7.59-11.341,9.814c-5.891,2.542-11.674,3.914-17.354,4.113  c-5.685,0.203-15.936,0.31-30.746,0.31h-3.046v-56.788h10.498c10.153,0,18.242,0.076,24.28,0.23  c6.039,0.152,10.786,0.891,14.234,2.209c5.686,2.031,9.943,5.021,12.788,8.979s4.267,9.438,4.267,16.441  C288.078,291.592,286.882,296.494,284.498,300.805z" fill="#FFFFFF" fill-rule="evenodd"/></svg>